<?xml version="1.0" encoding="UTF-8"?>
<svg width="0" height="0" class="hidden">
    <!-- Icon Post -->
    <symbol id="aa-forum-icon-post" xmlns="http://www.w3.org/2000/svg" viewBox="0 0 752 752">
        <path d="m581.45 590.4h-323.56c-2.2383 0-3.7305-1.4922-3.7305-3.7305l-0.003906-421.33c0-2.2383 1.4922-3.7305 3.7305-3.7305h323.18c2.2383 0 3.7305 1.4922 3.7305 3.7305v421.34c0.37891 1.8633-1.4883 3.7266-3.3516 3.7266zm-319.83-7.4609h315.72l0.003906-413.87h-315.72z" />
        <path d="m530.32 220.2h-222.05c-2.2383 0-3.7305-1.4922-3.7305-3.7305 0-2.2383 1.4922-3.7305 3.7305-3.7305h222.05c2.2383 0 3.7305 1.4922 3.7305 3.7305 0 2.2344-1.4922 3.7305-3.7305 3.7305z" />
        <path d="m530.32 284.01h-222.05c-2.2383 0-3.7305-1.4922-3.7305-3.7305 0-2.2383 1.4922-3.7305 3.7305-3.7305h222.05c2.2383 0 3.7305 1.4922 3.7305 3.7305 0 2.2383-1.4922 3.7305-3.7305 3.7305z" />
        <path d="m530.32 347.82h-222.05c-2.2383 0-3.7305-1.4922-3.7305-3.7305s1.4922-3.7305 3.7305-3.7305h222.05c2.2383 0 3.7305 1.4922 3.7305 3.7305s-1.4922 3.7305-3.7305 3.7305z" />
        <path d="m530.32 411.64h-222.05c-2.2383 0-3.7305-1.4922-3.7305-3.7305 0-2.2383 1.4922-3.7305 3.7305-3.7305h222.05c2.2383 0 3.7305 1.4922 3.7305 3.7305 0 2.2383-1.4922 3.7305-3.7305 3.7305z" />
        <path d="m530.32 475.83h-222.05c-2.2383 0-3.7305-1.4922-3.7305-3.7305 0-2.2383 1.4922-3.7305 3.7305-3.7305h222.05c2.2383 0 3.7305 1.4922 3.7305 3.7305 0 2.2344-1.4922 3.7305-3.7305 3.7305z" />
        <path d="m530.32 539.64h-222.05c-2.2383 0-3.7305-1.4922-3.7305-3.7305 0-2.2383 1.4922-3.7305 3.7305-3.7305h222.05c2.2383 0 3.7305 1.4922 3.7305 3.7305 0 2.2383-1.4922 3.7305-3.7305 3.7305z" />
        <path d="m257.89 590.4c-1.8672 0-3.3594-1.1211-3.7305-2.9844l-86.957-357.52c-0.375-1.8672 0.74609-4.1055 2.6133-4.4766l87.328-23.141c1.8672-0.375 4.1055 0.74609 4.4766 2.6133 0.375 1.8672-0.74609 4.1055-2.6133 4.4766l-83.965 22.02 86.582 354.16c0.375 1.8672-0.74609 4.1055-2.6133 4.4766-0.375 0.37109-0.75 0.37109-1.1211 0.37109z" />
    </symbol>
</svg>
